<svg id="fi_4388362" height="512" viewBox="0 0 512 512" width="512" xmlns="http://www.w3.org/2000/svg"><circle cx="256" cy="296" fill="#e9eef2" r="168"></circle><path d="m232 64h48v48h-48z" fill="#c3c6c7"></path><path d="m385.787 112.372h32v51.917h-32z" fill="#c3c6c7" transform="matrix(.707 .707 -.707 .707 215.495 -243.59)"></path><rect fill="#9aa3a8" height="32" rx="16" transform="matrix(.707 .707 -.707 .707 204.353 -270.489)" width="64" x="396.686" y="95.431"></rect><path d="m93.672 111.065h32v53.449h-32z" fill="#c3c6c7" transform="matrix(-.707 .707 -.707 -.707 284.653 157.671)"></path><g fill="#9aa3a8"><rect height="32" rx="16" transform="matrix(-.707 .707 -.707 -.707 221.019 131.314)" width="64" x="51.314" y="95.431"></rect><path d="m256 160a8 8 0 0 0 8-8v-16a8 8 0 0 0 -16 0v16a8 8 0 0 0 8 8z"></path><path d="m256 432a8 8 0 0 0 -8 8v16a8 8 0 0 0 16 0v-16a8 8 0 0 0 -8-8z"></path><path d="m112 288h-16a8 8 0 0 0 0 16h16a8 8 0 0 0 0-16z"></path><path d="m416 288h-16a8 8 0 0 0 0 16h16a8 8 0 0 0 0-16z"></path><path d="m148.521 177.206a8 8 0 0 0 -11.315 11.314l11.314 11.313a8 8 0 0 0 11.314-11.313z"></path><path d="m363.48 392.167a8 8 0 0 0 -11.314 11.313l11.313 11.314a8 8 0 0 0 11.315-11.314z"></path><path d="m148.52 392.167-11.314 11.313a8 8 0 0 0 11.315 11.314l11.313-11.314a8 8 0 0 0 -11.314-11.313z"></path><path d="m363.479 177.206-11.313 11.314a8 8 0 1 0 11.314 11.313l11.314-11.313a8 8 0 0 0 -11.315-11.314z"></path><path d="m357.657 290.343-16-16a8 8 0 0 0 -11.314 11.314l2.343 2.343h-68.686v-44.686l2.343 2.343a8 8 0 1 0 11.314-11.314l-16-16a8 8 0 0 0 -11.314 0l-16 16a8 8 0 0 0 11.314 11.314l2.343-2.343v52.686a8 8 0 0 0 8 8h76.686l-2.343 2.343a8 8 0 0 0 11.314 11.314l16-16a8 8 0 0 0 0-11.314z"></path><rect height="48" rx="16" width="80" x="216" y="24"></rect></g><path d="m256 104c-106.039 0-192 85.961-192 192s85.961 192 192 192 192-85.961 192-192-85.961-192-192-192zm0 352a160 160 0 1 1 160-160 160 160 0 0 1 -160 160z" fill="#ffb632"></path><circle cx="256" cy="296" fill="#ffb632" r="16"></circle></svg>