<svg height="512" viewBox="0 0 512 512" width="512" xmlns="http://www.w3.org/2000/svg"><g id="BULINE"><circle cx="256" cy="262" fill="#76c27d" r="250"/></g><g id="Icons"><path d="m156.82 18 .58 250.19a10.92 10.92 0 0 0 10.94 10.9l28.35-.07-.62-272.02-28.35.06a10.92 10.92 0 0 0 -10.9 10.94z" fill="#b9d6e3"/><path d="m196.07 7 .62 272 116.72-.27a10.92 10.92 0 0 0 10.9-10.95l-.58-250.18a10.92 10.92 0 0 0 -11-10.9z" fill="#c3e3f5"/><path d="m239.93 278.69h-1.17a5.39 5.39 0 0 1 -5.39-5.37l-.37-207.6a5.37 5.37 0 0 1 5.36-5.39h1.17a5.38 5.38 0 0 1 5.4 5.36l.35 207.61a5.37 5.37 0 0 1 -5.35 5.39z" fill="#f8f8f8"/><path d="m175.1 56.35a10.86 10.86 0 0 1 -10.72-9.16 10.76 10.76 0 0 0 -.15 1.71v2.15a10.87 10.87 0 0 0 10.87 10.87h18.5v-5.57z" fill="#b0323f"/><path d="m212.09 56.35h-18.49v5.57h18.49a10.87 10.87 0 0 0 10.91-10.87v-2.15a10.76 10.76 0 0 0 -.14-1.71 10.88 10.88 0 0 1 -10.77 9.16z" fill="#5a92b1"/><path d="m175.1 56.35h18.5v-18.35h-18.5a10.86 10.86 0 0 0 -10.72 9.16 10.86 10.86 0 0 0 10.72 9.19z" fill="#db3a46"/><path d="m212.09 38h-18.49v18.35h18.49a10.88 10.88 0 0 0 10.73-9.16 10.88 10.88 0 0 0 -10.73-9.19z" fill="#619fd8"/><path d="m266.76 56.35a10.88 10.88 0 0 1 -10.76-9.16 10.76 10.76 0 0 0 -.15 1.71v2.15a10.88 10.88 0 0 0 10.88 10.87h18.49v-5.57z" fill="#b0323f"/><path d="m303.74 56.35h-18.49v5.57h18.49a10.88 10.88 0 0 0 10.88-10.87v-2.15a10.76 10.76 0 0 0 -.15-1.71 10.87 10.87 0 0 1 -10.73 9.16z" fill="#5a92b1"/><path d="m266.76 56.35h18.49v-18.35h-18.49a10.88 10.88 0 0 0 -10.76 9.19 10.88 10.88 0 0 0 10.76 9.16z" fill="#db3a46"/><path d="m303.74 38h-18.49v18.35h18.49a10.87 10.87 0 0 0 10.73-9.16 10.87 10.87 0 0 0 -10.73-9.19z" fill="#619fd8"/><path d="m175.1 119.33a10.86 10.86 0 0 1 -10.72-9.16 10.79 10.79 0 0 0 -.15 1.72v2.11a10.88 10.88 0 0 0 10.87 10.88h18.5v-5.58z" fill="#b0323f"/><path d="m212.09 119.33h-18.49v5.58h18.49a10.87 10.87 0 0 0 10.91-10.91v-2.14a10.79 10.79 0 0 0 -.14-1.72 10.88 10.88 0 0 1 -10.77 9.19z" fill="#5a92b1"/><path d="m175.1 119.33h18.5v-18.33h-18.5a10.87 10.87 0 0 0 -10.72 9.16 10.86 10.86 0 0 0 10.72 9.17z" fill="#db3a46"/><path d="m212.09 101h-18.49v18.32h18.49a10.88 10.88 0 0 0 10.73-9.16 10.88 10.88 0 0 0 -10.73-9.16z" fill="#619fd8"/><path d="m266.76 119.33a10.88 10.88 0 0 1 -10.76-9.16 10.79 10.79 0 0 0 -.15 1.72v2.11a10.88 10.88 0 0 0 10.88 10.88h18.49v-5.58z" fill="#b0323f"/><path d="m303.74 119.33h-18.49v5.58h18.49a10.88 10.88 0 0 0 10.88-10.91v-2.14a10.79 10.79 0 0 0 -.15-1.72 10.87 10.87 0 0 1 -10.73 9.19z" fill="#5a92b1"/><path d="m266.76 119.33h18.49v-18.33h-18.49a10.88 10.88 0 0 0 -10.76 9.17 10.88 10.88 0 0 0 10.76 9.16z" fill="#db3a46"/><path d="m303.74 101h-18.49v18.32h18.49a10.87 10.87 0 0 0 10.73-9.16 10.88 10.88 0 0 0 -10.73-9.16z" fill="#619fd8"/><path d="m175.1 181.37a10.86 10.86 0 0 1 -10.72-9.16 10.76 10.76 0 0 0 -.15 1.71v2.15a10.87 10.87 0 0 0 10.87 10.87h18.5v-5.57z" fill="#b0323f"/><path d="m212.09 181.37h-18.49v5.57h18.49a10.87 10.87 0 0 0 10.91-10.87v-2.15a10.76 10.76 0 0 0 -.14-1.71 10.88 10.88 0 0 1 -10.77 9.16z" fill="#5a92b1"/><path d="m175.1 181.37h18.5v-18.32h-18.5a10.86 10.86 0 0 0 -10.72 9.16 10.86 10.86 0 0 0 10.72 9.16z" fill="#db3a46"/><path d="m212.09 163.05h-18.49v18.32h18.49a10.88 10.88 0 0 0 10.73-9.16 10.88 10.88 0 0 0 -10.73-9.16z" fill="#619fd8"/><path d="m266.76 181.37a10.88 10.88 0 0 1 -10.76-9.16 10.76 10.76 0 0 0 -.15 1.71v2.15a10.88 10.88 0 0 0 10.88 10.87h18.49v-5.57z" fill="#b0323f"/><path d="m303.74 181.37h-18.49v5.57h18.49a10.88 10.88 0 0 0 10.88-10.87v-2.15a10.76 10.76 0 0 0 -.15-1.71 10.87 10.87 0 0 1 -10.73 9.16z" fill="#5a92b1"/><path d="m266.76 181.37h18.49v-18.32h-18.49a10.88 10.88 0 0 0 -10.76 9.16 10.88 10.88 0 0 0 10.76 9.16z" fill="#db3a46"/><path d="m303.74 163.05h-18.49v18.32h18.49a10.87 10.87 0 0 0 10.73-9.16 10.87 10.87 0 0 0 -10.73-9.16z" fill="#619fd8"/><path d="m175.1 244.82a10.86 10.86 0 0 1 -10.72-9.16 10.79 10.79 0 0 0 -.15 1.72v2.14a10.87 10.87 0 0 0 10.87 10.87h18.5v-5.57z" fill="#b0323f"/><path d="m212.09 244.82h-18.49v5.57h18.49a10.87 10.87 0 0 0 10.91-10.87v-2.14a10.79 10.79 0 0 0 -.14-1.72 10.88 10.88 0 0 1 -10.77 9.16z" fill="#5a92b1"/><path d="m175.1 244.82h18.5v-18.32h-18.5a10.86 10.86 0 0 0 -10.72 9.16 10.86 10.86 0 0 0 10.72 9.16z" fill="#db3a46"/><path d="m212.09 226.5h-18.49v18.32h18.49a10.88 10.88 0 0 0 10.73-9.16 10.88 10.88 0 0 0 -10.73-9.16z" fill="#619fd8"/><path d="m266.76 244.82a10.88 10.88 0 0 1 -10.76-9.16 10.79 10.79 0 0 0 -.15 1.72v2.14a10.88 10.88 0 0 0 10.88 10.87h18.49v-5.57z" fill="#b0323f"/><path d="m303.74 244.82h-18.49v5.57h18.49a10.88 10.88 0 0 0 10.88-10.87v-2.14a10.79 10.79 0 0 0 -.15-1.72 10.87 10.87 0 0 1 -10.73 9.16z" fill="#5a92b1"/><path d="m266.76 244.82h18.49v-18.32h-18.49a10.88 10.88 0 0 0 -10.76 9.16 10.88 10.88 0 0 0 10.76 9.16z" fill="#db3a46"/><path d="m303.74 226.5h-18.49v18.32h18.49a10.87 10.87 0 0 0 10.73-9.16 10.87 10.87 0 0 0 -10.73-9.16z" fill="#619fd8"/><path d="m98.23 261.22h19.01v55.64h-19.01z" fill="#da9e2c" transform="matrix(.924 -.382 .382 .924 -102.13 62.97)"/><path d="m92.93 118.61-5.79 2.39-7.8-18.89-3.23 1.33-3.7 1.56-3.24 1.33-7.4 3.06 7.8 18.89 5.79-2.39a41.84 41.84 0 0 0 -22.79 54.42l17.56-7.31a41.83 41.83 0 0 1 22.8-54.39z" fill="#da9e2c"/><path d="m112.08 235.18h117.49v55.64h-117.49z" fill="#eaac2e" transform="matrix(.924 -.382 .382 .924 -87.42 85.07)"/><path d="m109.54 89.64-12.94 5.36-7.55 3.1-9.71 4 7.8 18.9 5.79-2.39a41.83 41.83 0 0 0 -22.8 54.39l108.59-44.8a41.83 41.83 0 0 0 -54.54-22.49l5.79-2.39-7.8-18.89-5.7 2.35z" fill="#eaac2e"/><path d="m51.73 82.38a7 7 0 0 1 9.14 3.8l4.87 11.82 3.26-1.36-18.54-44.86-19.92 8.22a6.47 6.47 0 0 0 -3.54 8.43l17 41.26a6.45 6.45 0 0 0 8.42 3.5l3.74-1.54-8.3-20.13a7 7 0 0 1 3.87-9.14z" fill="#c8759e"/><path d="m67.32 96.97h3.5v9.01h-3.5z" fill="#c8759e" transform="matrix(.924 -.382 .382 .924 -33.49 34.03)"/><path d="m72.67 95.12-4.87-11.8a7 7 0 1 1 12.94-5.32l4.87 11.79 7.55-3.11-4.87-11.8a7 7 0 0 1 12.94-5.34l4.87 11.8 6.9-2.89-4.87-11.79a7 7 0 1 1 12.94-5.34l8.3 20.12 2.05-.84a6.46 6.46 0 0 0 3.5-8.43l-17-41.26a6.46 6.46 0 0 0 -8.43-3.5l-59 24.37 18.51 44.86z" fill="#dc7da7"/><path d="m70.54 95.54h4v9.01h-4z" fill="#dc7da7" transform="matrix(.924 -.382 .382 .924 -32.68 35.25)"/><path d="m87.02 87.88h8.17v9.01h-8.17z" fill="#dc7da7" transform="matrix(.924 -.382 .382 .924 -28.35 41.75)"/><path d="m107.54 79.54h7.5v9.01h-7.5z" fill="#dc7da7" transform="matrix(.924 -.382 .382 .924 -23.65 48.82)"/><g fill="#b76f96"><path d="m65.74 98-4.87-11.8a7 7 0 0 0 -12.94 5.34l8.3 20.13 5.54-2.29-3.43-8.38z"/><path d="m59.75 99.16h8.01v9.01h-8.01z" transform="matrix(.924 -.382 .382 .924 -34.73 32.17)"/><path d="m85.61 89.77-4.87-11.77a7 7 0 1 0 -12.94 5.32l4.87 11.8 3.24-1.34z"/><path d="m74.26 94.11h3.5v9.01h-3.5z" transform="matrix(.924 -.382 .382 .924 -31.87 36.46)"/><path d="m77.23 91.44h10.5v9.01h-10.5z" transform="matrix(.924 -.382 .382 .924 -30.37 38.73)"/><path d="m101.23 69.52a7 7 0 1 0 -12.94 5.34l4.87 11.8 12.94-5.34z"/><path d="m94.35 83.65h14v9.01h-14z" transform="matrix(.924 -.382 .382 .924 -25.97 45.34)"/><path d="m117.32 57.52a7 7 0 0 0 -9.15 9.14l4.83 11.79 5.7-2.35 3.43 8.33 7.24-3-8.3-20.12a7 7 0 0 0 -3.75-3.79z"/><path d="m114.52 76.94h6.17v9.01h-6.17z" transform="matrix(.924 -.382 .382 .924 -22.18 51.03)"/></g><path d="m70.22 173.25-.09-.23-17.56 7.26c0 .07 0 .14.08.22l35.69 86.5 17.56-7.25z" fill="#d2d2d2"/><path d="m178.72 128.2-108.59 44.8.09.23 35.68 86.47 108.6-44.83-35.68-86.45c-.03-.07-.07-.14-.1-.22z" fill="#fff"/><path d="m178.72 128.2-108.59 44.8.09.23 35.68 86.47 108.6-44.83-35.68-86.45c-.03-.07-.07-.14-.1-.22z" fill="#fff"/><path d="m98 194 67.29-28.42a5.76 5.76 0 0 1 7.57 3.1l8.49 20.57a5.76 5.76 0 0 1 -3.09 7.5l-67.26 28.46a5.76 5.76 0 0 1 -7.57-3.1l-8.43-20.57a5.76 5.76 0 0 1 3-7.54z" fill="#db3a46"/><path d="m122.39 220.19a5.75 5.75 0 0 1 -7.56-3.11l-8.49-20.56a5.76 5.76 0 0 1 1.78-6.74l-10.12 4.22a5.76 5.76 0 0 0 -3.09 7.5l8.49 20.57a5.76 5.76 0 0 0 7.57 3.1l67.29-28.42a5.76 5.76 0 0 0 1.3-.76z" fill="#af3542"/><path d="m333.54 29.19-81.47 233.11a10.79 10.79 0 0 0 6.62 13.7l26.42 9.23 88.58-253.43-26.42-9.23a10.78 10.78 0 0 0 -13.73 6.62z" fill="#b9d6e3"/><path d="m373.69 31.8-88.58 253.47 108.74 38a10.79 10.79 0 0 0 13.74-6.62l81.46-233.11a10.77 10.77 0 0 0 -6.62-13.73z" fill="#c3e3f5"/><path d="m352.23 65.92a19.39 19.39 0 0 1 19.55-12.92 19.39 19.39 0 1 0 -12.31 35.22 19.36 19.36 0 0 1 -7.24-22.3z" fill="#76b1da"/><ellipse cx="365.63" cy="70.6" fill="#7bb9ec" rx="18.66" ry="14.19" transform="matrix(.33 -.944 .944 .33 178.35 392.47)"/><path d="m433.91 94.47a19.38 19.38 0 0 1 19.55-12.94 19.16 19.16 0 0 0 -4.66-2.39 19.38 19.38 0 1 0 -7.65 37.62 19.37 19.37 0 0 1 -7.24-22.29z" fill="#76b1da"/><ellipse cx="447.31" cy="99.15" fill="#7bb9ec" rx="18.66" ry="14.19" transform="matrix(.33 -.944 .944 .33 206.14 488.7)"/><path d="m330.77 127.34a19.38 19.38 0 0 1 19.55-12.93 19.37 19.37 0 1 0 -17.45 34.19 19 19 0 0 0 5.14 1 19.37 19.37 0 0 1 -7.24-22.26z" fill="#76b1da"/><ellipse cx="344.16" cy="132.02" fill="#7bb9ec" rx="18.66" ry="14.19" transform="matrix(.33 -.944 .944 .33 105.99 413.36)"/><path d="m412.45 155.88a19.38 19.38 0 0 1 19.55-12.88 19.38 19.38 0 1 0 -12.31 35.23 19.37 19.37 0 0 1 -7.24-22.35z" fill="#76b1da"/><ellipse cx="425.84" cy="160.57" fill="#7bb9ec" rx="18.66" ry="14.19" transform="matrix(.33 -.944 .944 .33 133.78 509.59)"/><path d="m309.76 187.45a19.39 19.39 0 0 1 19.55-12.93 19.16 19.16 0 0 0 -4.66-2.39 19.38 19.38 0 1 0 -7.65 37.62 19.38 19.38 0 0 1 -7.24-22.3z" fill="#76b1da"/><ellipse cx="323.15" cy="192.14" fill="#7bb9ec" rx="18.66" ry="14.19" transform="matrix(.33 -.944 .944 .33 35.16 433.81)"/><path d="m391.44 216a19.35 19.35 0 0 1 19.56-12.93 19.37 19.37 0 1 0 -17.45 34.19 19 19 0 0 0 5.14 1 19.37 19.37 0 0 1 -7.25-22.26z" fill="#76b1da"/><ellipse cx="404.83" cy="220.68" fill="#7bb9ec" rx="18.66" ry="14.19" transform="matrix(.33 -.944 .944 .33 62.95 530.04)"/><path d="m289 247a19.39 19.39 0 0 1 19.51-13 19.16 19.16 0 0 0 -4.66-2.39 19.38 19.38 0 1 0 -7.65 37.62 19.4 19.4 0 0 1 -7.2-22.23z" fill="#76b1da"/><ellipse cx="302.36" cy="251.64" fill="#7bb9ec" rx="18.66" ry="14.19" transform="matrix(.33 -.944 .944 .33 -34.95 454.06)"/><path d="m370.64 275.51a19.36 19.36 0 0 1 19.55-12.93 19.19 19.19 0 0 0 -4.66-2.4 19.38 19.38 0 1 0 -12.79 36.59 19.08 19.08 0 0 0 5.14 1 19.37 19.37 0 0 1 -7.24-22.26z" fill="#76b1da"/><ellipse cx="384.04" cy="280.19" fill="#7bb9ec" rx="18.66" ry="14.19" transform="matrix(.33 -.944 .944 .33 -7.16 550.29)"/><path d="m330.78 283-1.26-.44a6.11 6.11 0 0 1 -3.74-7.77l66-187.14a6.09 6.09 0 0 1 7.76-3.75l1.26.44a6.11 6.11 0 0 1 3.74 7.77l-66 187.17a6.09 6.09 0 0 1 -7.76 3.72z" fill="#f8f8f8"/><path d="m81.86 260.67v180.71a250.2 250.2 0 0 0 36.66 29.46v-210.17z" fill="#da9c65"/><path d="m118.52 260.67v210.17a250.08 250.08 0 0 0 310.34-28.23v-181.94z" fill="#f0c788"/><path d="m321.93 351.55h-28.26a9 9 0 0 1 -9-9v-28.24a9 9 0 0 0 -9-9h-40.67a9 9 0 0 0 -9 9v28.26a9 9 0 0 1 -9 9h-28.22a9 9 0 0 0 -9 9v40.72a9 9 0 0 0 9 9h28.27a9 9 0 0 1 9 9v28.26a9 9 0 0 0 9 9h40.71a9 9 0 0 0 9-9v-28.36a9 9 0 0 1 9-9h28.26a9 9 0 0 0 9-9v-40.67a9 9 0 0 0 -9.09-8.97z" fill="#db3a46"/><path d="m236.67 342.57v-28.26a9 9 0 0 1 9-9h-10.67a9 9 0 0 0 -9 9v28.26a9 9 0 0 1 -9 9h10.64a9 9 0 0 0 9.03-9z" fill="#af3542"/><path d="m236.67 447.45v-28.26a9 9 0 0 0 -9-9h-10.62a9 9 0 0 1 9 9v28.26a9 9 0 0 0 9 9h10.64a9 9 0 0 1 -9.02-9z" fill="#af3542"/><path d="m190.45 401.24v-40.72a9 9 0 0 1 9-9h-10.67a9 9 0 0 0 -9 9v40.72a9 9 0 0 0 9 9h10.65a9 9 0 0 1 -8.98-9z" fill="#af3542"/></g></svg>