<svg id="Capa_1" enable-background="new 0 0 512 512" height="512" viewBox="0 0 512 512" width="512" xmlns="http://www.w3.org/2000/svg"><g><path d="m46.001 75h-15v437h239.999v-15h-224.999z"/><path d="m46.001 15h344.998v98.501h15v-113.501h-374.998v60h15z"/><path d="m390.999 437h-60v60h-44.999v15h55.605l64.394-64.394v-41.607h-15zm-10.606 15-34.394 34.394v-34.394z"/><path d="m390.999 158.5h15v15h-15z"/><path d="m465.999 368.5c0 4.136-3.364 7.5-7.499 7.5h-150.001c-4.136 0-7.5-3.364-7.5-7.5v-120h-15v120c0 12.406 10.094 22.5 22.5 22.5h150.001c12.406 0 22.499-10.094 22.499-22.5v-37.5h-15z"/><path d="m450.999 188.5v-37.5c0-12.406-10.094-22.5-22.5-22.5h-90c-12.406 0-22.499 10.094-22.499 22.5v37.5h-30.001v45h15v-30h15.001v13.5h15v-13.5h44.999v-15h-44.999v-37.5c0-4.136 3.364-7.5 7.499-7.5h90c4.136 0 7.5 3.364 7.5 7.5v37.5h-44.999v15h44.999v13.5h15v-13.5h15v112.5h15v-127.5z"/><path d="m61 467h45v15h-45z"/><path d="m361 60h15v45h-15z"/><path d="m121.001 467h15v15h-15z"/><path d="m345.999 346h15v15h-15z"/><path d="m436 232h15v15h-15z"/><path d="m436 262h15v45h-15z"/><path d="m361 30h15v15h-15z"/><path d="m315.999 346h15v15h-15z"/><path d="m164.027 395.658h68.1v15h-68.1z"/><path d="m164.027 305.66h68.1v15h-68.1z"/><path d="m164.027 95.662h173.699v15h-173.699z"/><path d="m164.027 125.662h68.1v15h-68.1z"/><path d="m181 45h75v15h-75z"/><path d="m164.027 215.661h68.1v15h-68.1z"/><path d="m164.027 365.659h106.973v15h-106.973z"/><path d="m164.027 185.661h106.973v15h-106.973z"/><path d="m164.027 275.66h106.973v15h-106.973z"/><path d="m375.999 252.25v30h-30v15h30v30h15v-30h30.001v-15h-30.001v-30z"/><path d="m131.229 268.536-26.515 26.517-15.911-15.91-10.606 10.607 26.517 26.516 37.123-37.123z"/><path d="m131.229 358.535-26.515 26.517-15.911-15.91-10.606 10.607 26.517 26.516 37.123-37.123z"/><path d="m131.229 88.539-26.515 26.516-15.911-15.909-10.606 10.606 26.517 26.516 37.123-37.123z"/><path d="m131.229 178.538-26.515 26.516-15.911-15.91-10.606 10.606 26.517 26.517 37.123-37.123z"/></g></svg>