<svg id="Capa_1" enable-background="new 0 0 512 512" height="512" viewBox="0 0 512 512" width="512" xmlns="http://www.w3.org/2000/svg"><g><path d="m256 0c-80.016 0-135 80.375-135 165 0 85.839 50.757 146.34 105.492 161.09l-21.304 63.91h35.812v122h30v-122h35.812l-21.304-63.91c55.064-14.838 105.492-75.645 105.492-161.09 0-86.247-56.242-165-135-165zm0 332.434 9.188 27.566h-18.377zm0-32.434c-57.897 0-105-60.561-105-135s47.103-135 105-135 105 60.561 105 135-47.103 135-105 135z"/><path d="m211 120h30v30h-30z"/><path d="m271 180h30v30h-30z"/><path d="m200.846 150h110.309v30h-110.309z" transform="matrix(.707 -.707 .707 .707 -41.692 229.347)"/></g></svg>