<svg height="512" viewBox="0 0 53 58" width="512" xmlns="http://www.w3.org/2000/svg"><g id="Page-1" fill="none" fill-rule="evenodd"><g id="005---Pill-Reminder" fill-rule="nonzero"><g fill="#fdd7ad"><path id="Shape" d="m44 12.65c.083575-.028303.164002-.0651654.24-.11l7-4c1.6789456-.96097549 2.2609754-3.10105435 1.2999999-4.77999996-.9609754-1.67894562-3.1010543-2.26097546-4.7799999-1.30000004l-3.76 2.15-2.185 4.39z"/><path id="Shape" d="m31.4 53c-1.89 1.2-3.76 2.36-4.4 2.7-7.65 4.14-22.16 3.08-25.84-6.37-1.63-4.19-1.38-8.32-.25-12.61.58821988-2.1732255 1.33008727-4.3019171 2.22-6.37 1.96-4.65 2.87-15.68 2.87-20.73v-.39c-.01722908-1.12011283.41737841-2.19996425 1.20573948-2.99585144.78836107-.79588718 1.86403455-1.2407347 2.98426052-1.23414856 2.1346067.10150703 3.8124121 1.86298251 3.81 4z"/><path id="Shape" d="m51 28c0-2.209139-1.790861-4-4-4 2.209139 0 4-1.790861 4-4s-1.790861-4-4-4h-3.5v24h3.5c2.209139 0 4-1.790861 4-4s-1.790861-4-4-4c2.209139 0 4-1.790861 4-4z"/></g><path id="Shape" d="m44 4.16v44.68c.0214266 1.082143-.3880118 2.128455-1.1382016 2.9086523-.7501897.7801974-1.7796473 1.2303372-2.8617984 1.2513477h-22c-1.0821511-.0210105-2.1116087-.4711503-2.8617984-1.2513477-.7501898-.7801973-1.1596282-1.8265093-1.1382016-2.9086523v-44.68c-.0214266-1.08214296.3880118-2.12845503 1.1382016-2.90865235.7501897-.78019732 1.7796473-1.23033711 2.8617984-1.25134765h22c1.0821511.02101054 2.1116087.47115033 2.8617984 1.25134765.7501898.78019732 1.1596282 1.82650939 1.1382016 2.90865235z" fill="#9fc9d3"/><path id="Shape" d="m44 6.7v42.14c.0214266 1.082143-.3880118 2.128455-1.1382016 2.9086523-.7501897.7801974-1.7796473 1.2303372-2.8617984 1.2513477h-22c-1.0821511-.0210105-2.1116087-.4711503-2.8617984-1.2513477-.7501898-.7801973-1.1596282-1.8265093-1.1382016-2.9086523v-6.44c17.04-9.55 25.66-24.08 30-35.7z" fill="#84b5cb"/><path id="Shape" d="m34 21h-10c-3.3137085 0-6-2.6862915-6-6s2.6862915-6 6-6h10z" fill="#e64c3c"/><path id="Shape" d="m40 15c-.0049563 3.3116533-2.6883467 5.9950437-6 6h-5v-12h5c3.3137085 0 6 2.6862915 6 6z" fill="#f3d55b"/><path id="Shape" d="m22 16c-.5522847 0-1-.4477153-1-1 0-1.6568542 1.3431458-3 3-3 .5522847 0 1 .4477153 1 1s-.4477153 1-1 1-1 .4477153-1 1-.4477153 1-1 1z" fill="#ecf0f1"/><path id="Shape" d="m38.934 32.886c-.0629605-.548971-.559029-.9429604-1.108-.88-.548971.0629605-.9429604.559029-.88 1.108.2831861 2.4171257-.563487 4.8298673-2.295 6.54-2.1785174 2.1797335-5.416503 2.912084-8.321 1.882-.4097266-.1449381-.8064716-.3242427-1.186-.536h.856c.5522847 0 1-.4477153 1-1s-.4477153-1-1-1h-4c-.3080147.0000081-.5988398.1419601-.7883345.3847868-.1894947.2428268-.2565131.5594308-.1816655.8582132l1 4c.1114591.4449311.5113206.7569879.97.757.0822727.0003241.1642562-.0097558.244-.03.5357071-.1342174.8611901-.677286.727-1.213l-.333-1.332c.6342861.4107421 1.314186.7463294 2.026 1 1.0670285.3814184 2.19185.5759364 3.325.575 2.65374.0015558 5.1992752-1.051769 7.076-2.928 2.1652426-2.1416815 3.2235138-5.1612033 2.869-8.186z" fill="#547580"/><path id="Shape" d="m21.205 35.776c-.8206205-3.3860777.6603151-6.9117951 3.6527533-8.6962429s6.7983092-1.4113537 9.3872467.9202429h-1.245c-.5522847 0-1 .4477153-1 1s.4477153 1 1 1h4c.3080147-.0000081.5988398-.1419601.7883345-.3847868.1894947-.2428268.2565131-.5594308.1816655-.8582132l-1-4c-.0847423-.348821-.3499483-.6254598-.6948844-.7248402-.344936-.0993804-.7166761-.0062538-.9740215.2440075-.2573454.2502612-.3608098.6192576-.2710941.9668327l.246.986c-.5637139-.4614899-1.1771787-.8586152-1.829-1.184-3.4591202-1.7147411-7.5963443-1.2850454-10.6292456 1.1039627-3.0329012 2.3890081-4.4196331 6.3105176-3.5627544 10.0750373.1043314.4539301.5082345.7757256.974.776.0756948.000033.1511586-.0083519.225-.025.2586416-.0593122.4831046-.218991.6239617-.4438747s.1865577-.4965313.1270383-.7551253z" fill="#547580"/><path id="Shape" d="m29 29c-.5522847 0-1 .4477153-1 1v4c-.00005.3342785.1669303.6464754.445.832l3 2c.4595009.306518 1.080482.1825009 1.387-.277s.1825009-1.080482-.277-1.387l-2.555-1.703v-3.465c0-.5522847-.4477153-1-1-1z" fill="#547580"/><path id="Shape" d="m40 0-1.83 3.06c-.72681 1.20054641-2.0265948 1.93570167-3.43 1.94h-11.48c-1.4034052-.00429833-2.70319-.73945359-3.43-1.94l-1.83-3.06z" fill="#464f5d"/><path id="Shape" d="m44 48v.84c.0214266 1.082143-.3880118 2.128455-1.1382016 2.9086523-.7501897.7801974-1.7796473 1.2303372-2.8617984 1.2513477h-22c-1.0821511-.0210105-2.1116087-.4711503-2.8617984-1.2513477-.7501898-.7801973-1.1596282-1.8265093-1.1382016-2.9086523v-.84z" fill="#464f5d"/></g></g></svg>